<svg id="e6Osf8HKxzv1" xmlns="http://www.w3.org/2000/svg" xmlns:xlink="http://www.w3.org/1999/xlink" viewBox="0 0 835.662 343.125" shape-rendering="geometricPrecision" text-rendering="geometricPrecision"><style><![CDATA[#e6Osf8HKxzv6-fill-g1 {animation: e6Osf8HKxzv6-fill-g1__t 2222.222222222222ms linear 1 normal forwards}@keyframes e6Osf8HKxzv6-fill-g1__t { 0% {transform: matrix(-0.371,0.843,-0.843,-0.371,0.661,0.006)} 55% {transform: matrix(-0.371,0.843,-0.843,-0.371,0.661,0.006)} 100% {transform: matrix(0,0.921026,-0.921026,0,0.4755,-0.033013)}} #e6Osf8HKxzv6-fill-g1-0 {animation: e6Osf8HKxzv6-fill-g1-0__c 2222.222222222222ms linear 1 normal forwards}@keyframes e6Osf8HKxzv6-fill-g1-0__c { 0% {stop-color: #fff} 55% {stop-color: #fff} 100% {stop-color: #fff}} #e6Osf8HKxzv6-fill-g1-1 {animation: e6Osf8HKxzv6-fill-g1-1__c 2222.222222222222ms linear 1 normal forwards}@keyframes e6Osf8HKxzv6-fill-g1-1__c { 0% {stop-color: #fff} 55% {stop-color: #fff} 100% {stop-color: #fff}} #e6Osf8HKxzv6 {animation-name: e6Osf8HKxzv6_f_p, e6Osf8HKxzv6_s_p, e6Osf8HKxzv6_s_do;animation-duration: 2222.222222222222ms;animation-fill-mode: forwards;animation-timing-function: linear;animation-direction: normal;animation-iteration-count: 1;}@keyframes e6Osf8HKxzv6_f_p { 0% {fill: none} 50% {fill: none} 55% {fill: #fff} 100% {fill: #fff}}@keyframes e6Osf8HKxzv6_s_p { 0% {stroke: #fff} 50% {stroke: #fff} 55% {stroke: none} 100% {stroke: none}}@keyframes e6Osf8HKxzv6_s_do { 0% {stroke-dashoffset: 1828.735597} 50% {stroke-dashoffset: 0} 100% {stroke-dashoffset: 0}} #e6Osf8HKxzv7 {animation-name: e6Osf8HKxzv7_f_p, e6Osf8HKxzv7_s_p, e6Osf8HKxzv7_s_do;animation-duration: 2222.222222222222ms;animation-fill-mode: forwards;animation-timing-function: linear;animation-direction: normal;animation-iteration-count: 1;}@keyframes e6Osf8HKxzv7_f_p { 0% {fill: none} 50% {fill: none} 55% {fill: #fff} 100% {fill: #fff}}@keyframes e6Osf8HKxzv7_s_p { 0% {stroke: #fff} 50% {stroke: #fff} 55% {stroke: none} 100% {stroke: none}}@keyframes e6Osf8HKxzv7_s_do { 0% {stroke-dashoffset: 173.964878} 25% {stroke-dashoffset: 173.964878} 50% {stroke-dashoffset: 0} 100% {stroke-dashoffset: 0}} #e6Osf8HKxzv8 {animation: e6Osf8HKxzv8_c_o 2222.222222222222ms linear 1 normal forwards}@keyframes e6Osf8HKxzv8_c_o { 0% {opacity: 100} 50% {opacity: 100} 55% {opacity: 1} 100% {opacity: 1}} #e6Osf8HKxzv14 {animation: e6Osf8HKxzv14_c_o 2222.222222222222ms linear 1 normal forwards}@keyframes e6Osf8HKxzv14_c_o { 0% {opacity: 100} 55% {opacity: 100} 60% {opacity: 1} 100% {opacity: 1}} #e6Osf8HKxzv15 {animation: e6Osf8HKxzv15_c_o 2222.222222222222ms linear 1 normal forwards}@keyframes e6Osf8HKxzv15_c_o { 0% {opacity: 100} 60% {opacity: 100} 65% {opacity: 1} 100% {opacity: 1}} #e6Osf8HKxzv16 {animation: e6Osf8HKxzv16_c_o 2222.222222222222ms linear 1 normal forwards}@keyframes e6Osf8HKxzv16_c_o { 0% {opacity: 100} 65% {opacity: 100} 70% {opacity: 1} 100% {opacity: 1}} #e6Osf8HKxzv17 {animation: e6Osf8HKxzv17_c_o 2222.222222222222ms linear 1 normal forwards}@keyframes e6Osf8HKxzv17_c_o { 0% {opacity: 100} 70% {opacity: 100} 75% {opacity: 1} 100% {opacity: 1}} #e6Osf8HKxzv18 {animation: e6Osf8HKxzv18_c_o 2222.222222222222ms linear 1 normal forwards}@keyframes e6Osf8HKxzv18_c_o { 0% {opacity: 100} 75% {opacity: 100} 80% {opacity: 1} 100% {opacity: 1}} #e6Osf8HKxzv19 {animation: e6Osf8HKxzv19_c_o 2222.222222222222ms linear 1 normal forwards}@keyframes e6Osf8HKxzv19_c_o { 0% {opacity: 100} 80% {opacity: 100} 85% {opacity: 1} 100% {opacity: 1}} #e6Osf8HKxzv20 {animation: e6Osf8HKxzv20_c_o 2222.222222222222ms linear 1 normal forwards}@keyframes e6Osf8HKxzv20_c_o { 0% {opacity: 100} 85% {opacity: 100} 90% {opacity: 1} 100% {opacity: 1}} #e6Osf8HKxzv21 {animation: e6Osf8HKxzv21_c_o 2222.222222222222ms linear 1 normal forwards}@keyframes e6Osf8HKxzv21_c_o { 0% {opacity: 100} 90% {opacity: 100} 95% {opacity: 1} 100% {opacity: 1}} #e6Osf8HKxzv22 {animation: e6Osf8HKxzv22_c_o 2222.222222222222ms linear 1 normal forwards}@keyframes e6Osf8HKxzv22_c_o { 0% {opacity: 100} 95% {opacity: 100} 100% {opacity: 1}}]]></style><defs><linearGradient id="e6Osf8HKxzv6-fill-g1" x1="0.661" y1="0.006" x2="0.29" y2="0.849" spreadMethod="pad" gradientUnits="objectBoundingBox" gradientTransform="translate(0 0)"><stop id="e6Osf8HKxzv6-fill-g1-0" offset="0%" stop-color="#fff"/><stop id="e6Osf8HKxzv6-fill-g1-1" offset="100%" stop-color="#fff"/></linearGradient><linearGradient id="e6Osf8HKxzv6-stroke" x1="0" y1="0" x2="1" y2="0" spreadMethod="pad" gradientUnits="objectBoundingBox" gradientTransform="matrix(-0.371 0.843 -0.843 -0.371 0.661 0.006)"><stop id="e6Osf8HKxzv6-stroke-0" offset="0%" stop-color="#fff"/><stop id="e6Osf8HKxzv6-stroke-1" offset="100%" stop-color="#fff"/></linearGradient><linearGradient id="e6Osf8HKxzv7-fill-g1" x1="1.966" y1="-5.886" x2="0.667" y2="-0.226" spreadMethod="pad" gradientUnits="objectBoundingBox" gradientTransform="translate(0 0)"><stop id="e6Osf8HKxzv7-fill-g1-0" offset="0%" stop-color="#fff"/><stop id="e6Osf8HKxzv7-fill-g1-1" offset="100%" stop-color="#fff"/></linearGradient><linearGradient id="e6Osf8HKxzv7-stroke" x1="0" y1="0" x2="1" y2="0" spreadMethod="pad" gradientUnits="objectBoundingBox" gradientTransform="matrix(-1.299 5.66 -5.66 -1.299 1.966 -5.886)"><stop id="e6Osf8HKxzv7-stroke-0" offset="0%" stop-color="#fff"/><stop id="e6Osf8HKxzv7-stroke-1" offset="100%" stop-color="#fff"/></linearGradient><linearGradient id="e6Osf8HKxzv9-fill" x1="0.4755" y1="-0.033013" x2="0.4755" y2="0.888013" spreadMethod="pad" gradientUnits="objectBoundingBox" gradientTransform="translate(0 0)"><stop id="e6Osf8HKxzv9-fill-0" offset="0%" stop-color="#fff"/><stop id="e6Osf8HKxzv9-fill-1" offset="100%" stop-color="#fff"/></linearGradient><linearGradient id="e6Osf8HKxzv10-fill" x1="1.966" y1="-5.886" x2="0.667" y2="-0.226" spreadMethod="pad" gradientUnits="objectBoundingBox" gradientTransform="translate(0 0)"><stop id="e6Osf8HKxzv10-fill-0" offset="0%" stop-color="#fff"/><stop id="e6Osf8HKxzv10-fill-1" offset="100%" stop-color="#fff"/></linearGradient><linearGradient id="e6Osf8HKxzv14-fill" x1="0.5" y1="0" x2="0.5" y2="1" spreadMethod="pad" gradientUnits="objectBoundingBox" gradientTransform="translate(0 0)"><stop id="e6Osf8HKxzv14-fill-0" offset="0%" stop-color="#fd1667"/><stop id="e6Osf8HKxzv14-fill-1" offset="100%" stop-color="#fd8467"/></linearGradient><linearGradient id="e6Osf8HKxzv15-fill" x1="0.5" y1="0" x2="0.5" y2="1" spreadMethod="pad" gradientUnits="objectBoundingBox" gradientTransform="translate(0 0)"><stop id="e6Osf8HKxzv15-fill-0" offset="0%" stop-color="#fd1667"/><stop id="e6Osf8HKxzv15-fill-1" offset="100%" stop-color="#fd8467"/></linearGradient><linearGradient id="e6Osf8HKxzv16-fill" x1="0.5" y1="0" x2="0.5" y2="1" spreadMethod="pad" gradientUnits="objectBoundingBox" gradientTransform="translate(0 0)"><stop id="e6Osf8HKxzv16-fill-0" offset="0%" stop-color="#fd1667"/><stop id="e6Osf8HKxzv16-fill-1" offset="100%" stop-color="#fd8467"/></linearGradient><linearGradient id="e6Osf8HKxzv17-fill" x1="0.5" y1="0" x2="0.5" y2="1" spreadMethod="pad" gradientUnits="objectBoundingBox" gradientTransform="translate(0 0)"><stop id="e6Osf8HKxzv17-fill-0" offset="0%" stop-color="#fd1667"/><stop id="e6Osf8HKxzv17-fill-1" offset="100%" stop-color="#fd8467"/></linearGradient><linearGradient id="e6Osf8HKxzv18-fill" x1="0.5" y1="0" x2="0.5" y2="1" spreadMethod="pad" gradientUnits="objectBoundingBox" gradientTransform="translate(0 0)"><stop id="e6Osf8HKxzv18-fill-0" offset="0%" stop-color="#fd1667"/><stop id="e6Osf8HKxzv18-fill-1" offset="100%" stop-color="#fd8467"/></linearGradient><linearGradient id="e6Osf8HKxzv19-fill" x1="0.5" y1="0" x2="0.5" y2="1" spreadMethod="pad" gradientUnits="objectBoundingBox" gradientTransform="translate(0 0)"><stop id="e6Osf8HKxzv19-fill-0" offset="0%" stop-color="#fd1667"/><stop id="e6Osf8HKxzv19-fill-1" offset="100%" stop-color="#fd8467"/></linearGradient><linearGradient id="e6Osf8HKxzv20-fill" x1="0.5" y1="0" x2="0.5" y2="1" spreadMethod="pad" gradientUnits="objectBoundingBox" gradientTransform="translate(0 0)"><stop id="e6Osf8HKxzv20-fill-0" offset="0%" stop-color="#fd1667"/><stop id="e6Osf8HKxzv20-fill-1" offset="100%" stop-color="#fd8467"/></linearGradient><linearGradient id="e6Osf8HKxzv21-fill" x1="0.5" y1="0" x2="0.5" y2="1" spreadMethod="pad" gradientUnits="objectBoundingBox" gradientTransform="translate(0 0)"><stop id="e6Osf8HKxzv21-fill-0" offset="0%" stop-color="#fd1667"/><stop id="e6Osf8HKxzv21-fill-1" offset="100%" stop-color="#fd8467"/></linearGradient><linearGradient id="e6Osf8HKxzv22-fill" x1="0.5" y1="0" x2="0.5" y2="1" spreadMethod="pad" gradientUnits="objectBoundingBox" gradientTransform="translate(0 0)"><stop id="e6Osf8HKxzv22-fill-0" offset="0%" stop-color="#fd1667"/><stop id="e6Osf8HKxzv22-fill-1" offset="100%" stop-color="#fd8467"/></linearGradient></defs><g transform="translate(-5047.363824-1649.276367)"><g transform="translate(5015 1656.44)"><g transform="translate(0-.003)"><g transform="matrix(.761684 0 0 0.761684 66.728876 33.725735)"><path id="e6Osf8HKxzv6" d="M77.88,308.885c-3.287295.00239-6.440637-1.302424-8.765107-3.626893s-3.629283-5.477812-3.626893-8.765107v-49.051c-.002273-4.752043,2.709932-9.08792,6.984-11.165l54.778-26.586l35.05-18.269c31.131-16.224,51.248-46.219,51.248-76.41c0-.318,0-.636-.015-.954-1.379-39.326-28.51-74.335-66-85.182-29.934-8.65-60.883-3.257-84.939,14.816-23.869805,17.747623-37.897637,45.772485-37.8,75.517c0,23.738,13.77,57.49,30.691,77.138l74.85-39.372c6.061049-3.193587,13.563413-.869049,16.757,5.192s.869049,13.563413-5.192,16.757L58.838,222.613c-4.637599,2.438314-10.307261,1.698584-14.164-1.848C20.027,198.163,0,152.6,0,119.192c-.125383-37.545164,17.57566-72.921645,47.7-95.331C78.047,1.047,116.949,-5.816,154.442,5.031c23.606797,6.834119,44.409355,21.038642,59.368,40.538c15.096636,19.376673,23.681008,43.030072,24.526,67.579.03.591.03,1.227.03,1.848c0,39.326-25.344,77.956-64.579,98.407l-35.221,18.36c-.106.061-.212.106-.318.167L90.287,255.2v21.526L158.82,243.64c6.146535-2.864779,13.45431-.260593,16.403938,5.845678s.446898,13.449411-5.617938,16.483322L83.288,307.643c-1.682197.805192-3.52303,1.224402-5.388,1.227Z" transform="translate(0 0.003)" fill="none" stroke="#fff" stroke-dashoffset="1828.735597" stroke-dasharray="1828.735597"/><path id="e6Osf8HKxzv7" d="M76.17,242.12c-5.776828.012097-10.796713-3.966535-12.104191-9.593469s1.443873-11.411295,6.634191-13.947531l43.2-21.148c6.13881-2.948677,13.506858-.394659,16.503741,5.720762s.500912,13.503334-5.590741,16.548238l-43.2,21.148c-1.694326.829185-3.556666,1.25756-5.443,1.252Z" transform="translate(32.825 101.005)" fill="none" stroke="#fff" stroke-dashoffset="173.964878" stroke-dasharray="173.964878"/></g><g id="e6Osf8HKxzv8" transform="matrix(.761684 0 0 0.761684 66.728876 33.725735)" opacity="0"><path d="M77.88,308.885c-3.287295.00239-6.440637-1.302424-8.765107-3.626893s-3.629283-5.477812-3.626893-8.765107v-49.051c-.002273-4.752043,2.709932-9.08792,6.984-11.165l54.778-26.586l35.05-18.269c31.131-16.224,51.248-46.219,51.248-76.41c0-.318,0-.636-.015-.954-1.379-39.326-28.51-74.335-66-85.182-29.934-8.65-60.883-3.257-84.939,14.816-23.869805,17.747623-37.897637,45.772485-37.8,75.517c0,23.738,13.77,57.49,30.691,77.138l74.85-39.372c6.061049-3.193587,13.563413-.869049,16.757,5.192s.869049,13.563413-5.192,16.757L58.838,222.613c-4.637599,2.438314-10.307261,1.698584-14.164-1.848C20.027,198.163,0,152.6,0,119.192c-.125383-37.545164,17.57566-72.921645,47.7-95.331C78.047,1.047,116.949,-5.816,154.442,5.031c23.606797,6.834119,44.409355,21.038642,59.368,40.538c15.096636,19.376673,23.681008,43.030072,24.526,67.579.03.591.03,1.227.03,1.848c0,39.326-25.344,77.956-64.579,98.407l-35.221,18.36c-.106.061-.212.106-.318.167L90.287,255.2v21.526L158.82,243.64c6.146535-2.864779,13.45431-.260593,16.403938,5.845678s.446898,13.449411-5.617938,16.483322L83.288,307.643c-1.682197.805192-3.52303,1.224402-5.388,1.227Z" transform="translate(0 0.003)" fill="#fff" stroke-dasharray="1828.735597"/><path d="M76.17,242.12c-5.776828.012097-10.796713-3.966535-12.104191-9.593469s1.443873-11.411295,6.634191-13.947531l43.2-21.148c6.13881-2.948677,13.506858-.394659,16.503741,5.720762s.500912,13.503334-5.590741,16.548238l-43.2,21.148c-1.694326.829185-3.556666,1.25756-5.443,1.252Z" transform="translate(32.825 101.005)" fill="#fff" stroke-dasharray="173.964878"/></g></g></g><g transform="translate(4986.99 1694.39)"><g transform="translate(301.647 90.416)"><g><path id="e6Osf8HKxzv14" d="M95.72,32.25h16.28v77h38.9v14.47h-55.163v-91.47Z" transform="translate(-95.72-26.038)" opacity="0" fill="#fff"/><path id="e6Osf8HKxzv15" d="M132,41.031c-.01448-2.464721.989257-4.826072,2.774-6.526c1.867693-1.856109,4.418256-2.859693,7.05-2.774c2.644174-.073647,5.214765.875996,7.176,2.651c1.85851,1.711821,2.915873,4.123265,2.915873,6.65s-1.057363,4.938179-2.915873,6.65c-1.960072,1.774399-4.529059,2.724336-7.172,2.652-2.631186.082474-5.180522-.920626-7.05-2.774-1.786978-1.699955-2.792268-4.062639-2.778-6.529Zm2.2,21.061h15.5v62.015h-15.5Z" transform="translate(-68.694-26.425)" opacity="0" fill="#fff"/><path id="e6Osf8HKxzv16" d="M217.552,49.912v56.449c.059037,5.133751-.634668,10.248438-2.059,15.181-1.232724,4.269451-3.421374,8.202181-6.4,11.5-3.031708,3.238888-6.769581,5.73491-10.923,7.294-5.004581,1.830021-10.307745,2.706137-15.635,2.583-2.659039-.010128-5.313304-.226107-7.939-.646-2.801446-.438504-5.566162-1.085978-8.271-1.937-2.694221-.847622-5.309718-1.927682-7.817-3.228-2.389041-1.224264-4.641048-2.699232-6.718-4.4l8.917-12.023c2.955247,2.80655,6.420214,5.021712,10.208,6.526c3.654402,1.479844,7.55738,2.249579,11.5,2.268c3.201518.106323,6.390754-.446092,9.37-1.623c2.37105-.948212,4.460963-2.485702,6.072-4.467c1.544159-1.989003,2.644802-4.28542,3.228-6.735.667143-2.80635.989523-5.683592.96-8.568v-4.537h-.262c-2.208893,3.030885-5.16714,5.436076-8.585,6.98-3.67501,1.644873-7.665101,2.466713-11.691,2.408-4.359539.062734-8.681049-.818421-12.668-2.583-3.660276-1.633009-6.940526-4.010101-9.632-6.98-2.68051-3.005132-4.766711-6.491409-6.148-10.274-1.477037-3.986791-2.222319-8.207454-2.2-12.459-.015618-4.31299.704368-8.597061,2.129-12.668c1.3254-3.808943,3.388743-7.319209,6.072-10.33c2.668972-2.964401,5.925239-5.341387,9.562-6.98c3.961237-1.769995,8.261847-2.65162,12.6-2.583c4.239881-.032675,8.43266.890167,12.267,2.7c3.798141,1.810807,6.952041,4.739303,9.039,8.393h.262v-9.3h14.727ZM184.485,60.766c-2.6025-.04725-5.1831.483146-7.556,1.553-2.130809.978214-4.02402,2.407078-5.549,4.188-1.549786,1.841604-2.734264,3.961786-3.49,6.247-.83135,2.491494-1.243942,5.103566-1.221,7.73-.009038,2.454555.403977,4.892395,1.221,7.207.788094,2.270838,1.969421,4.385378,3.49,6.247c1.513269,1.859952,3.40477,3.376834,5.549,4.45c2.309002,1.142075,4.857322,1.716329,7.433,1.675c2.65266.029432,5.280006-.518216,7.7-1.605c2.211625-1.023715,4.189473-2.490679,5.811-4.31c1.610498-1.831363,2.859818-3.951001,3.682-6.247.859816-2.372177,1.296774-4.876812,1.291-7.4.002638-2.584857-.433907-5.151376-1.291-7.59-.809473-2.317842-2.059786-4.45716-3.682-6.3-1.594266-1.805819-3.550189-3.256493-5.741-4.258-2.400574-1.067203-5.005268-1.59722-7.632-1.553Z" transform="translate(-54.644-14.246)" opacity="0" fill="#fff"/><path id="e6Osf8HKxzv17" d="M234.118,62.542c3.58393-.095756,7.141998.632622,10.4,2.129c2.756087,1.320083,5.181982,3.239957,7.1,5.619c1.877993,2.370443,3.260678,5.093985,4.066,8.009.858358,3.025377,1.292833,6.155213,1.291,9.3v38.755h-15.5v-34.113c-.001685-1.879498-.129976-3.756747-.384-5.619-.235774-1.846085-.784641-3.638443-1.623-5.3-.815627-1.585548-2.015487-2.941492-3.49-3.944-1.796893-1.112603-3.88896-1.654099-6-1.553-2.234788-.059979-4.450583.424984-6.456,1.413-1.772476.9114-3.317002,2.210183-4.519,3.8-1.213237,1.609758-2.127732,3.424185-2.7,5.357-.60439,1.967229-.910128,4.014023-.907,6.072v33.853h-15.496v-97.63h15.5v44.3h.262c.672065-1.40211,1.567765-2.685542,2.652-3.8c1.207971-1.284378,2.574246-2.410059,4.066-3.35c1.649663-1.034407,3.432784-1.83883,5.3-2.391c2.096177-.615907,4.27126-.921483,6.456-.907Z" transform="translate(-18.112-28.69)" opacity="0" fill="#fff"/><path id="e6Osf8HKxzv18" d="M237.877,69.192v-12.407h10.854v-17.955h15.251v17.955h15.5v12.407h-15.5v28.808c-.091385,2.368666.418821,4.721875,1.483,6.84.995,1.815,3.211,2.7,6.648,2.7c1.123593-.00864,2.244372-.113693,3.35-.314c1.113913-.183885,2.199072-.512324,3.228-.977l.523,12.145c-1.587564.572565-3.229396.981682-4.9,1.221-1.794561.291256-3.60899.443043-5.427.454-3.44679.129745-6.882631-.462594-10.087-1.739-2.422091-1.042894-4.536638-2.68888-6.142-4.781-1.529935-2.073502-2.589838-4.455384-3.106-6.98-.574104-2.783996-.85497-5.620476-.838-8.463v-28.931h-10.854Z" transform="translate(10.166-21.136)" opacity="0" fill="#fff"/><path id="e6Osf8HKxzv19" d="M268.59,32.25h16.28v77h38.895v14.47h-55.158v-91.47Z" transform="translate(33.058-26.038)" opacity="0" fill="#fff"/><path id="e6Osf8HKxzv20" d="M346.351,104.04h-.384c-1.765298,2.956339-4.371532,5.319565-7.486,6.788-3.651787,1.811964-7.68498,2.721413-11.761,2.652-2.634802-.020446-5.258216-.348331-7.817-.977-2.666696-.62452-5.201353-1.717476-7.486-3.228-2.313315-1.537855-4.256389-3.570073-5.689-5.95-1.585961-2.767313-2.371208-5.92111-2.268-9.109q0-6.988,3.944-11.115c2.827306-2.8878,6.302886-5.059266,10.138-6.334c4.44795-1.526255,9.065315-2.504801,13.75-2.914c5.043-.471,9.964-.715,14.8-.715v-1.554q0-5.811-4.205-8.585c-2.986991-1.903565-6.475305-2.869677-10.016-2.774-3.252634-.000335-6.466951.702018-9.423,2.059-2.780231,1.213623-5.316773,2.922383-7.486,5.043L306.95,57.9c3.521313-3.269376,7.679809-5.77639,12.215-7.364c4.494376-1.619947,9.234596-2.452158,14.012-2.46q8.271,0,13.628,2.321c3.260763,1.327567,6.160866,3.408321,8.463,6.072c2.042166,2.445454,3.519922,5.311167,4.328,8.393.808343,3.03398,1.218783,6.160183,1.221,9.3v37.726h-14.466v-7.887Zm-.262-20.416h-3.489c-2.5,0-5.13.1-7.887.314-2.586357.185569-5.143886.659508-7.625,1.413-2.129256.626484-4.107129,1.683665-5.811,3.106-1.572624,1.382951-2.427405,3.408499-2.321,5.5-.047933,1.294912.28591,2.57534.96,3.682.639033.98266,1.49978,1.80162,2.513,2.391c1.082481.623479,2.26236,1.059933,3.49,1.291c1.275233.257296,2.573071.38594,3.874.384q8.009,0,12.145-4.258t4.136-11.621v-2.2Z" transform="translate(59.034-14.246)" opacity="0" fill="#fff"/><path id="e6Osf8HKxzv21" d="M362.353,28.69v43.536h.384c.888953-1.16199,1.880615-2.241672,2.963-3.226c1.320514-1.195737,2.772472-2.237739,4.328-3.106c4.131461-2.278848,8.788472-3.433963,13.506-3.35c8.248803-.100472,16.147497,3.328348,21.707,9.423c2.715433,3.008952,4.819521,6.517465,6.195,10.33c1.49056,4.097926,2.235641,8.429553,2.2,12.79.028556,4.376684-.691486,8.726027-2.129,12.86-1.328183,3.849687-3.39024,7.40531-6.072,10.47-2.667113,2.996918-5.921801,5.413597-9.562,7.1-3.99123,1.816326-8.336478,2.722198-12.721,2.652-4.278306.031198-8.504125-.942963-12.337-2.844-3.744473-1.811937-6.87052-4.689249-8.986-8.271h-.262v9.3h-14.727v-97.664h15.5Zm35.527,66.4c-.003876-2.432384-.374716-4.850262-1.1-7.172-.701883-2.311886-1.820244-4.476084-3.3-6.386-1.491411-1.917451-3.385687-3.484009-5.549-4.589-2.447955-1.214451-5.155207-1.813431-7.887-1.745-2.65338-.041486-5.274867.582514-7.625,1.815-2.194892,1.170231-4.144015,2.752005-5.741,4.659-1.593789,1.909491-2.818608,4.098703-3.612,6.456-.804784,2.329872-1.217717,4.777053-1.222,7.242.001522,2.442341.414641,4.866961,1.222,7.172.802214,2.336391,2.026503,4.505674,3.612,6.4c1.590123,1.895542,3.541724,3.455531,5.741,4.589c4.909421,2.351078,10.624996,2.325287,15.513-.07c2.159377-1.141555,4.050973-2.729759,5.549-4.659c1.487378-1.930929,2.60607-4.119498,3.3-6.456.724204-2.345994,1.094938-4.786774,1.1-7.242Z" transform="translate(91.35-28.69)" opacity="0" fill="#fff"/><path id="e6Osf8HKxzv22" d="M428.31,67.348c-1.514545-1.91775-3.417504-3.493554-5.584-4.624-2.364451-1.304996-5.025426-1.978334-7.726-1.955-2.327371-.027652-4.628635.492342-6.718,1.518-1.960997.906127-3.166049,2.921692-3.036,5.078-.097383,2.221946,1.259134,4.249839,3.35,5.008c3.186909,1.263492,6.47275,2.261553,9.824,2.984c2.344307.525967,4.652396,1.202026,6.91,2.024c2.258383.813207,4.390733,1.940989,6.334,3.35c1.892656,1.385804,3.468871,3.158364,4.624,5.2c1.244594,2.312909,1.858491,4.912662,1.78,7.538.101109,3.272144-.618787,6.517518-2.094,9.44-1.32403,2.511176-3.240796,4.66136-5.584,6.264-2.458486,1.668068-5.212239,2.852515-8.114,3.49-3.135598.724388-6.34382,1.087418-9.562,1.082-4.727985-.002744-9.414262-.884388-13.82-2.6-4.243697-1.569523-8.061888-4.109048-11.15-7.416l10.016-9.37c1.780198,2.270822,4.032024,4.128237,6.6,5.444c2.776635,1.44789,5.868778,2.185194,9,2.146c1.127625-.000378,2.251537-.129208,3.35-.384c1.114068-.234325,2.185329-.639083,3.176-1.2.953541-.529952,1.757754-1.2922,2.338-2.216.620234-1.030333.929313-2.218031.89-3.42.10026-2.368839-1.295593-4.54621-3.49-5.444-3.368063-1.438175-6.868732-2.543438-10.452-3.3-2.259359-.501175-4.480804-1.160124-6.648-1.972-2.075023-.747923-4.018447-1.819878-5.758-3.176-1.693175-1.310183-3.075536-2.978715-4.048-4.886-1.081059-2.250384-1.601862-4.728828-1.518-7.224-.082786-3.047428.639497-6.062804,2.094-8.742c1.354689-2.401034,3.240823-4.460252,5.514-6.02c2.360546-1.592491,4.974362-2.772597,7.73-3.49c2.891683-.764103,5.871085-1.14569,8.862-1.135c4.387526.002287,8.740474.776069,12.86,2.286c3.911954,1.323633,7.36324,3.739464,9.946,6.962L428.31,67.33Z" transform="translate(121.818-13.307)" opacity="0" fill="#fff"/></g></g></g></g></svg>